<mxfile host="app.diagrams.net" modified="2023-02-12T18:51:39.877Z" agent="5.0 (Windows NT 10.0; Win64; x64) AppleWebKit/537.36 (KHTML, like Gecko) Chrome/110.0.0.0 Safari/537.36" version="20.6.2" etag="VQ_jY9cBoClJxGAXMDMW" type="github">
  <diagram id="KPobaeO3bbhPjcslkUXU" name="Page-1">
    <mxGraphModel dx="1209" dy="777" grid="1" gridSize="10" guides="1" tooltips="1" connect="1" arrows="1" fold="1" page="1" pageScale="1" pageWidth="850" pageHeight="1100" math="0" shadow="0">
      <root>
        <mxCell id="0" />
        <mxCell id="1" parent="0" />
        <mxCell id="T_ul8nOzae2GSwhMlLBv-2" value="OpenAI api" style="shape=image;verticalLabelPosition=bottom;labelBackgroundColor=default;verticalAlign=top;aspect=fixed;imageAspect=0;image=data:image/png,iVBORw0KGgoAAAANSUhEUgAAAOEAAADhCAMAAAAJbSJIAAAAhFBMVEX///8AAACOjo6/v7/FxcWbm5tSUlJgYGBlZWUpKSnJycnm5ub8/Pz19fXR0dHMzMzu7u6kpKTZ2dm3t7d6enr29vZZWVkuLi7f3982Nja0tLQkJCRERETv7+9xcXFqamqKioqAgIAXFxerq6uWlpafn58MDAxMTEw6OjoRERFGRkYcHBzAJ+ohAAAO6klEQVR4nO1daVfqMBAVQVQ2sSCLyFIX1Of//39PULCzZWaSFvQc7kdtaW6bzJ7J2dkJJ5xwwgknnHDCCSds0el2O51jD6IStBsvefP6cV3b4GM6yp8b7WOPqTxMnpY1FqOL7NhjKwHZ6pGn9428d+wRJqF/Hqa3xft5/9jjjEV2qdP7nq5/crb2mlZ+G7z+OY598/fb4fJvydZnL78Nzo89ajuyjxiCtdr65tgjN+I8jt8G+bHHbkH3IZ5grfbWPfb4VWQp/Db47UK1nkqwVqsfm0MQ9/LAx4vnem/S7vfbWW/wvBjLVz4dm0UAT9Kghw2yvuat85lw9csxxm6CQFA2rrM8RHE+aQ3u7+8H9dZk/jsEEL8GX+6CN92zH/L5dvi2Bn+Zjc7rx7bQbyIn3MBhHyzr4fdVKfrMgHLbeFw23uhospYKx5lZtbXfPBxr+aRKIhJooGLhuT13UayNDh8ZoFLm1vcDDR/F2ujA33FORuB8yY1rJ8PPOXJQoUP8Xd8bbrviAXsMKmLDoIWf7fLX7/Iofp8YHewzYq3t+oKiqWfBgXxmPEbPY2/8CxDguTJWBXTQQx2Gc9sdsCK4rI7YHhfwkU3zjR0t3jFtXi4Xy8tm8DtPq1+M6IlmNyDgTNbWi6eb4g9N6rlI82NeAakiBvB5VrMxky21j2dWVPUH0pyumOIUPMw4R/tCOuoTi4Cx0H1hEyGPlU7UCXyYTRPK3sS59j0GHMe3dB4yoLQYWm6Rw1UmS4xbv6NEFiHAJxnc8Mk/id+b0d26G9J7q9GLndYKhX+X6j1dZnTfcJiZxEys1RoJRATUR/QxqkfxIvLzfYS7V/IDJUubSc6N8kO5qyGmhK/cUSYyALulYUBLyE2Ev4PsI01jXPYL/CvlRZJbU26UG4R8ig556Xvcx43jFv9OSUHVCV0BO8wCt8k+0iq6ggh/xXKM8JCxLCvDGzFNMUpJbmO5XIK3mAWrR6TZ1mak7hfGiWNCK3ua9mtnauhWWIYr8YZk2YBd08RocUeLF7F3yT5SXkIJXw/+5Djpx9pafROnDSeij9Qsp7oETZBWwk+xiRcARpSJcd5ZaUYWTFElqH1D+pqK0rZ0qSGUYy1DRS8xOhQ+4EcKsCJ3XfEXLlTV3F98fpqxzVSF+jm27Ej4gq+r4I/f8Tepr/knQmVxN5CwieKHf2T3KSbQiyEMJ9xdukAvzpcHw6yDRnJUVopdTtupBhYBYci8GH3iZcj80ac0XImrCIIdJg39NqE/rjNcqkGxLhOhUsUSuDpkHEtgbK6dMeJi+KAHKXij6UNRLdBW9utZ6paP9z/iYahLjfo7S7Cm2edwvbt9MSouCsEYO0Ndik+CJX9BHwvkvkzhviKI31Mcq5XhpRqk6C5C/DYIfJu8eJ3XNiVzFOTnjQz11S9HqH4gBxuhuvYR7OLHQIfHyPBaeYocoYKQZDFUZz7DDc8dpM9KYejJ4l/wPwGucTmJWNfjGpkSGDIB7DwQDHpnNQd4R646F5TOIgmQdIYkYFZrbmeZrDk4xzIPjiMAXNJMDKhUhi1SmfjjOFLuO1DNASwFTzEWMqGozk5jyESoihZaIMWBNQcIlTjyUKjSSfPhnQw7NEI1RJPEnKYC6sLh56PYKCOqExjSEPE/RszLy3FZfBuA4audIdRSnIiKZtgjmYG1IOTlCGZBc4Bx2BnC2NMjd0kkwz4Nb8iO41xM+T/upVLkLIXantUycQxpZiCcXOuJOYGd5gAM7ZIG/hhr28cwpEGtteo4ankdoFn0RDQe39cvsdf4GWacj/SgBleU3BwQy/xQGcC5xJuzXoZzyUfSc8ByeudTc4Claq6rA7pI0NlOhiRtW4Aeo6IG0A45WKjWigeY1hGe72Io67YtJHVRgMWLtO9+61nucjAM5I534FQ+BFdJQ2BNdkPxJURJwgz3CvWaG9qqS5X5UC0ZCUdztjAShOJJUqJGhmMq7bfRMyY6qjt3ymS3KwvgVEoul5EhweMuz5cR622mJ77DqWhzYhm8KSnOFcmw+KGoAaDnTrtCUmsLc5gG3CWJpyiGyEdiaqH1AhTZkHu3EoS+ofRWIxgyyTXGENcD15IhZ/bwYQxKusrN8J1XetSZ0isxBUPOnD6vhqEQDDzjPkmkIWf2napguAgl15ighh40azGawzpNYUJGusrDUJ139JOsdROTqUIzqouyv6FhsNwWIT3LzSSabYZpyQyfjbUjdDmqhlyXFCWxARcCuHFZWvRGho5dLR1aRKX6e8T2M6UQYdJJmitGhp7tEMy+mGutlivHd5gKMsAd0iMOw1CvQsVy2FSuAMwiaaIciqFqyGHnzJJ/ApaUpGMOx1Az5HAO0iDZgKKRkkdGhp7a3T1DEpUJKtQOunylPwl6NYIwrJJhqw4LK2vh+iiczNVjGfAOQV9XybDOubqyYYtVqSFPCq4XQgNhhvu6vliGjF8VqI9CoS7HowLXA4Yk4pjOkPOrxOpNNE91FxNmmQW/rnjJG7Z8ymDIGXJSCXwOrnpQHwW9C97tQuU2SGmVw5BzdfloFRqNHrCBvhdvVWDtBaZGSQy5ihveLIOmjZ4nsOx/JcW1RaVVGsPPBY9qXNfsvdBd0PYKkqpE3r+gPfaW+wv3DD3FdDxDkrPg5QJMbemVplCMCQqDKSrcqY1SGZ51wVTlpxSMKujOPpJiktHEJD0HFTCEX1EIOAEz6Ep9GNo3Ja8mGrfeVjyXzBBkHwWGefEafrECILcrIJxoQGg5PwZDOE31zcW4B1vAuGcaB78cgSGcdoY6zByO+T0UFaL21R6HYwi3lxi2FeES4XBAWawJOSBDsLAswWHsv4TvYeLWh2YIqhRNsQUcNlcCdXxNiFbnXUQiQ2iBWB5IOlBosUiuJuSA3xAKR1Mcmpgsap6cLse1vXz+J4IdxxA67qZeFB0SLXnQ3gzj7uhFFoRFGQxte6CY/tVqMQGzHC0RTBB7OhxDrqR8pd5El6Mam0c1RZEMwXOtq4MpYTW0wGf2GYReKemeeEiGJKC8wUhdxdxeEXEJ0/dxwFkqtZLXa0KYWjbeZ+NUzEEZSg1N9IAdjj6wzT54M6EMhua8pVieY2gORGtK0WZEydSLY2jLXYfvCg6XARfmKMxvsTNIHEMQwbWlu8+0jhF6goBpkbib37RyL5HhreUigjzI0LSHmRhG4403zZR7vSTapWDCrKwM1X7iUfvQl336t6v+T2Y2jiGoVzFv69YI1pRypy3krS97bKPJaQyha2Gt+A4Jmh/oEYNAmGOLrzeextBUu00A41fyLiQ97hPqOruTr2kMgfVl3uIF3sv4rCW2uzX0ZZG6Yv0onSSGsCrW3IoRxJo3/q+8f1V3A9nuz0U7J4khTG6YG7nkxbu2Z04Ftj2oJVptaoICWzWJIbQRrQSh8/T95eVtD+EeVx1m3wWUBykMYaca+45nYBfv37fcByHgBtL5Teq5UhhCxW3v5wcYFpSovE9LcAOpjJpRvz+BIfyEhrwMy7C4ZgL9SBg30Bi7SWAIV7ij8QAwHqEkYfdLbjFGgozbm84K3niGKEvs6GoLvhTWMXIjN+BXUV3fFJRnNENkenmamebgxZN/B7qP75Yjtdfk0qZohsg/8JzBB74+kzlmfKAdtnKJsbkD5WmxDFGkxdXCHFht7LainuhfTTPmGwdbsEUyxF66qw0PTM7wiiBkUyMozmQcQ9yvSy9SKAIuYWl8cqdZAGHjUyJD4uA524ODe8UiFXk7eQG6ub//FQdDQjCwzlkASRj4/q3AwZRbLNXC3YIRYWdIAtbuZrs5uD10ZfBkI8PRB0WxbWZIG92627RCORU0aAOnUxkC5MCYtzKkAXnnkW9nOLyjOCUTvjeZP8lhY9inbYhiWrPD9aWNdUCCo4bIOHUcTQyZcIM50F0EnAj6dENKHlvhDJiRGhjecNG7qNNKobAySCpgqOlFkKwQJpYrZthi+1BEnv2oPJtBtlsfeud1QZGSbwFm0uuAV02xLcvhtLOpm/rlpwUzVHOUUoCRltpbrKboRujIaCjxXGlRg9LZZuhrktB0HqmAso5YlgP9TFRStwpTzmVHG8/N/UOCkB1LJkJFz5EkN6Wd+YxedhlHgMrHnfBGiULQ5zBRYA8z+Yxsxi74Bu6e+A0lBeY31TBQVM1TUMlAPhtQbKUUPLzgrYTTMvDO/pSz3AKBVtlBziv9gBtgseA6lRpADpaHHGTZ+dSb2dtA2kLncb9TF0+LD3YzEZfha4qOgCDK2d39/CzU1EypPhJ6tV2Vx++MbEONWIuBxKPmsXCZ58fnZJEOQeZpbeYTYZ7mxwi0eHA9rOAIeaY4ymGiyn0PDUeTIel7eVvR6fGMGdI0ThQ52MiaaAhof1IaiyC4YZ4byla6ucTPpsvg+o0RcWawzsCFwrEj56cEEw0BqYpKT1TH/Sd2Aw0Ibf5Ezy30CpwvwKkTc5SMA11BYV9fsCQnL3Ldn6Fj6RdQzLccG03GnXzS+dVto/2Tup5n94tQn0pzyRI+A7CEM/eUB4arMWfN5fKy+TATvaMvLO3KGmVYYw8e8yDUetKGN4e2xtZiWSGUIEKnkVrgObEIWzPVnE9NoJ+GGIDr9FjiU1TGCeFO7OekwXd6LN5sHXt4cAwcqfsCPnwhTULwX0VsWJhaT0OsnaqMehTlnF5qBlsOG4IzCEl9maqVPcXEyXHl+XGaqHAcP1Ie2rmL4tQ8zSaMkW/ca1s2OgPXhzTqMy7TVGpMxodOfWg8Ou0T74bVyKakykglpKBfP79ENMfLW9YznIWVWueWNdi9ZUAVod1r1e+fnu7rvezLtBbCvytxPWY5f8chDO44SDbs+Jkuq07rXAptrw4+cDsCJ5NMF0/1rN/tdufzrP40lD3P3zJFBcTZdwAl5tUrAX8mtAMVxH5LxlzZmBfGtOTYfTXwW+l7VBodLRG0RtKGdUIFyYFxp574y0EvqfpNyMQDGyVYDo//XahrNTEA078zQQto6Oc1faNZaXaiSmT6tvVayG79C+gMwiHl9fDPfr4fdBorwcQeXfx+A8aKbva0WjZ3qaz1dDS8bfzpuXnCCSeccMIJJ5xwwgknbPAfNM3Lc/OddgwAAAAASUVORK5CYII=;" vertex="1" parent="1">
          <mxGeometry x="270" y="664.5" width="55" height="55" as="geometry" />
        </mxCell>
        <mxCell id="T_ul8nOzae2GSwhMlLBv-10" style="edgeStyle=orthogonalEdgeStyle;rounded=0;orthogonalLoop=1;jettySize=auto;html=1;" edge="1" parent="1" source="T_ul8nOzae2GSwhMlLBv-3" target="T_ul8nOzae2GSwhMlLBv-2">
          <mxGeometry relative="1" as="geometry" />
        </mxCell>
        <mxCell id="T_ul8nOzae2GSwhMlLBv-3" value="Open AI functions&#xa;for content extraction" style="shape=image;verticalLabelPosition=bottom;labelBackgroundColor=#ffffff;verticalAlign=top;aspect=fixed;imageAspect=0;image=data:image/svg+xml,PHN2ZyB4bWxuczpjYz0iaHR0cDovL2NyZWF0aXZlY29tbW9ucy5vcmcvbnMjIiB4bWxuczpkYz0iaHR0cDovL3B1cmwub3JnL2RjL2VsZW1lbnRzLzEuMS8iIHhtbG5zOmlua3NjYXBlPSJodHRwOi8vd3d3Lmlua3NjYXBlLm9yZy9uYW1lc3BhY2VzL2lua3NjYXBlIiB4bWxuczpyZGY9Imh0dHA6Ly93d3cudzMub3JnLzE5OTkvMDIvMjItcmRmLXN5bnRheC1ucyMiIHhtbG5zOnNvZGlwb2RpPSJodHRwOi8vc29kaXBvZGkuc291cmNlZm9yZ2UubmV0L0RURC9zb2RpcG9kaS0wLmR0ZCIgeG1sbnM6c3ZnPSJodHRwOi8vd3d3LnczLm9yZy8yMDAwL3N2ZyIgeG1sbnM9Imh0dHA6Ly93d3cudzMub3JnLzIwMDAvc3ZnIiB4bWxuczp4bGluaz0iaHR0cDovL3d3dy53My5vcmcvMTk5OS94bGluayIgdmVyc2lvbj0iMS4xIiBpZD0ic3ZnNTg1MzciIGlua3NjYXBlOnZlcnNpb249IjAuOTIuMyAoMjQwNTU0NiwgMjAxOC0wMy0xMSkiIHNvZGlwb2RpOmRvY25hbWU9ImF6dXJlX2Z1bmN0aW9ucy5zdmciIHg9IjBweCIgeT0iMHB4IiB2aWV3Qm94PSIwIDAgNTcuMzEgNTIuODEiIHN0eWxlPSJlbmFibGUtYmFja2dyb3VuZDpuZXcgMCAwIDU3LjMxIDUyLjgxOyIgeG1sOnNwYWNlPSJwcmVzZXJ2ZSI+JiN4YTs8c29kaXBvZGk6bmFtZWR2aWV3IGJvcmRlcmNvbG9yPSIjNjY2NjY2IiBib3JkZXJvcGFjaXR5PSIxIiBmaXQtbWFyZ2luLWJvdHRvbT0iMCIgZml0LW1hcmdpbi1sZWZ0PSIwIiBmaXQtbWFyZ2luLXJpZ2h0PSIwIiBmaXQtbWFyZ2luLXRvcD0iMCIgZ3JpZHRvbGVyYW5jZT0iMTAiIGd1aWRldG9sZXJhbmNlPSIxMCIgaWQ9Im5hbWVkdmlldzU4NTM5IiBpbmtzY2FwZTpjdXJyZW50LWxheWVyPSJzdmc1ODUzNyIgaW5rc2NhcGU6Y3g9IjM5LjQ3MTQ0MiIgaW5rc2NhcGU6Y3k9IjI2LjM0NTIxNyIgaW5rc2NhcGU6cGFnZW9wYWNpdHk9IjAiIGlua3NjYXBlOnBhZ2VzaGFkb3c9IjIiIGlua3NjYXBlOndpbmRvdy1oZWlnaHQ9IjEwMTciIGlua3NjYXBlOndpbmRvdy1tYXhpbWl6ZWQ9IjEiIGlua3NjYXBlOndpbmRvdy13aWR0aD0iMTkyMCIgaW5rc2NhcGU6d2luZG93LXg9Ii04IiBpbmtzY2FwZTp3aW5kb3cteT0iLTgiIGlua3NjYXBlOnpvb209IjYuMzkxNjgyOCIgb2JqZWN0dG9sZXJhbmNlPSIxMCIgcGFnZWNvbG9yPSIjZmZmZmZmIiBzaG93Z3JpZD0iZmFsc2UiPiYjeGE7CTwvc29kaXBvZGk6bmFtZWR2aWV3PiYjeGE7PGcgaWQ9Imc1ODUzNSIgdHJhbnNmb3JtPSJ0cmFuc2xhdGUoLTkuNTYzNDE2MSwtOS41Njc2MDUyKSI+JiN4YTsJPHRpdGxlIGlkPSJ0aXRsZTU4NTEwIj5QYWdlLTE8L3RpdGxlPiYjeGE7CTxnIGlkPSJncm91cDQ0MzYtMSIgdHJhbnNmb3JtPSJ0cmFuc2xhdGUoOS4zOTU0MywtOS41NjI1KSI+JiN4YTsJCTx0aXRsZSBpZD0idGl0bGU1ODUxMiI+QXp1cmUgRnVuY3Rpb25zLjQzNzwvdGl0bGU+JiN4YTsJCTxnIGlkPSJzaGFwZTQ0MzctMiIgdHJhbnNmb3JtPSJ0cmFuc2xhdGUoMzkuMjA1OSwtMTAuMjkzOCkiPiYjeGE7CQkJPHRpdGxlIGlkPSJ0aXRsZTU4NTE0Ij5TaGVldC40NDM3PC90aXRsZT4mI3hhOwkJCTxwYXRoIGlkPSJwYXRoNTg1MTYiIGlua3NjYXBlOmNvbm5lY3Rvci1jdXJ2YXR1cmU9IjAiIHN0eWxlPSJmaWxsOiMzOTk5QzY7IiBkPSJNMTcuOSw1Ni4xOGMwLjU0LTAuNTMsMC40NS0xLjUyLDAtMi4wNiAgICAgbC0yLjc3LTIuNzdsLTEyLjM2LTEyYy0wLjUzLTAuNTMtMS4zNC0wLjUzLTEuOTYsMGMtMC41NCwwLjU0LTAuNzIsMS41MywwLDIuMDZsMTIuOTcsMTIuNzFjMC41NCwwLjU0LDAuNTQsMS41MywwLDIuMDYgICAgIEwwLjU0LDY5LjM0QzAsNjkuODgsMCw3MC44NiwwLjU0LDcxLjRjMC41MywwLjU0LDEuNTIsMC40NSwxLjk3LDBsMTIuMjYtMTIuMTdjMCwwLDAsMCwwLjA5LTAuMDlMMTcuOSw1Ni4xOHoiLz4mI3hhOwkJPC9nPiYjeGE7CQk8ZyBpZD0ic2hhcGU0NDM4LTQiIHRyYW5zZm9ybT0idHJhbnNsYXRlKDAsLTEwLjI5MzgpIj4mI3hhOwkJCTx0aXRsZSBpZD0idGl0bGU1ODUxOSI+U2hlZXQuNDQzODwvdGl0bGU+JiN4YTsJCQk8cGF0aCBpZD0icGF0aDU4NTIxIiBpbmtzY2FwZTpjb25uZWN0b3ItY3VydmF0dXJlPSIwIiBzdHlsZT0iZmlsbDojMzk5OUM2OyIgZD0iTTAuNTQsNTYuMThjLTAuNTQtMC41My0wLjQ1LTEuNTIsMC0yLjA2ICAgICBsMi43Ny0yLjc3bDEyLjM1LTEyYzAuNTQtMC41MywxLjM1LTAuNTMsMS45NywwYzAuNTQsMC41NCwwLjcyLDEuNTMsMCwyLjA2TDQuOTIsNTQuMTJjLTAuNTMsMC41NC0wLjUzLDEuNTMsMCwyLjA2TDE3LjksNjkuMzQgICAgIGMwLjU0LDAuNTQsMC41NCwxLjUyLDAsMi4wNmMtMC41MywwLjU0LTEuNTIsMC40NS0xLjk3LDBMMy40LDU5LjQxYzAsMCwwLDAtMC4wOS0wLjA5TDAuNTQsNTYuMTh6Ii8+JiN4YTsJCTwvZz4mI3hhOwkJPGcgaWQ9InNoYXBlNDQzOS02IiB0cmFuc2Zvcm09InRyYW5zbGF0ZSgxNS45MzMpIj4mI3hhOwkJCTx0aXRsZSBpZD0idGl0bGU1ODUyNCI+U2hlZXQuNDQzOTwvdGl0bGU+JiN4YTsJCQk8cGF0aCBpZD0icGF0aDU4NTI2IiBpbmtzY2FwZTpjb25uZWN0b3ItY3VydmF0dXJlPSIwIiBzdHlsZT0iZmlsbDojRkNEMTE2OyIgZD0iTTI2Ljg1LDE5LjEzSDkuNEwwLDQ1LjYybDExLjQ2LDAuMDlMMi41MSw3MS45NCAgICAgbDI0LjctMzVIMTUuMjJMMjYuODUsMTkuMTN6Ii8+JiN4YTsJCTwvZz4mI3hhOwkJPGcgaWQ9InNoYXBlNDQ0MC04IiB0cmFuc2Zvcm09InRyYW5zbGF0ZSgxOC40MzkzKSI+JiN4YTsJCQk8dGl0bGUgaWQ9InRpdGxlNTg1MjkiPlNoZWV0LjQ0NDA8L3RpdGxlPiYjeGE7CQkJPHBhdGggaWQ9InBhdGg1ODUzMSIgaW5rc2NhcGU6Y29ubmVjdG9yLWN1cnZhdHVyZT0iMCIgc3R5bGU9ImZpbGw6I0ZGOEMwMDtmaWxsLW9wYWNpdHk6MC4zOyIgZD0iTTEyLjcxLDM2Ljk0bDExLjY0LTE3LjgxICAgICBoLTkuMTNMNS41NSw0MS4xNGwxMS40NiwwLjA5TDAsNzEuOTRsMjQuNzEtMzVMMTIuNzEsMzYuOTR6Ii8+JiN4YTsJCTwvZz4mI3hhOwk8L2c+JiN4YTs8L2c+JiN4YTs8L3N2Zz4=;" vertex="1" parent="1">
          <mxGeometry x="269.49999999999994" y="504.5" width="57" height="53" as="geometry" />
        </mxCell>
        <mxCell id="T_ul8nOzae2GSwhMlLBv-11" style="edgeStyle=orthogonalEdgeStyle;rounded=0;orthogonalLoop=1;jettySize=auto;html=1;" edge="1" parent="1" source="T_ul8nOzae2GSwhMlLBv-4" target="T_ul8nOzae2GSwhMlLBv-6">
          <mxGeometry relative="1" as="geometry" />
        </mxCell>
        <mxCell id="T_ul8nOzae2GSwhMlLBv-4" value="Storage functions&#xa;for entities" style="shape=image;verticalLabelPosition=bottom;labelBackgroundColor=#ffffff;verticalAlign=top;aspect=fixed;imageAspect=0;image=data:image/svg+xml,PHN2ZyB4bWxuczpjYz0iaHR0cDovL2NyZWF0aXZlY29tbW9ucy5vcmcvbnMjIiB4bWxuczpkYz0iaHR0cDovL3B1cmwub3JnL2RjL2VsZW1lbnRzLzEuMS8iIHhtbG5zOmlua3NjYXBlPSJodHRwOi8vd3d3Lmlua3NjYXBlLm9yZy9uYW1lc3BhY2VzL2lua3NjYXBlIiB4bWxuczpyZGY9Imh0dHA6Ly93d3cudzMub3JnLzE5OTkvMDIvMjItcmRmLXN5bnRheC1ucyMiIHhtbG5zOnNvZGlwb2RpPSJodHRwOi8vc29kaXBvZGkuc291cmNlZm9yZ2UubmV0L0RURC9zb2RpcG9kaS0wLmR0ZCIgeG1sbnM6c3ZnPSJodHRwOi8vd3d3LnczLm9yZy8yMDAwL3N2ZyIgeG1sbnM9Imh0dHA6Ly93d3cudzMub3JnLzIwMDAvc3ZnIiB4bWxuczp4bGluaz0iaHR0cDovL3d3dy53My5vcmcvMTk5OS94bGluayIgdmVyc2lvbj0iMS4xIiBpZD0ic3ZnNTg1MzciIGlua3NjYXBlOnZlcnNpb249IjAuOTIuMyAoMjQwNTU0NiwgMjAxOC0wMy0xMSkiIHNvZGlwb2RpOmRvY25hbWU9ImF6dXJlX2Z1bmN0aW9ucy5zdmciIHg9IjBweCIgeT0iMHB4IiB2aWV3Qm94PSIwIDAgNTcuMzEgNTIuODEiIHN0eWxlPSJlbmFibGUtYmFja2dyb3VuZDpuZXcgMCAwIDU3LjMxIDUyLjgxOyIgeG1sOnNwYWNlPSJwcmVzZXJ2ZSI+JiN4YTs8c29kaXBvZGk6bmFtZWR2aWV3IGJvcmRlcmNvbG9yPSIjNjY2NjY2IiBib3JkZXJvcGFjaXR5PSIxIiBmaXQtbWFyZ2luLWJvdHRvbT0iMCIgZml0LW1hcmdpbi1sZWZ0PSIwIiBmaXQtbWFyZ2luLXJpZ2h0PSIwIiBmaXQtbWFyZ2luLXRvcD0iMCIgZ3JpZHRvbGVyYW5jZT0iMTAiIGd1aWRldG9sZXJhbmNlPSIxMCIgaWQ9Im5hbWVkdmlldzU4NTM5IiBpbmtzY2FwZTpjdXJyZW50LWxheWVyPSJzdmc1ODUzNyIgaW5rc2NhcGU6Y3g9IjM5LjQ3MTQ0MiIgaW5rc2NhcGU6Y3k9IjI2LjM0NTIxNyIgaW5rc2NhcGU6cGFnZW9wYWNpdHk9IjAiIGlua3NjYXBlOnBhZ2VzaGFkb3c9IjIiIGlua3NjYXBlOndpbmRvdy1oZWlnaHQ9IjEwMTciIGlua3NjYXBlOndpbmRvdy1tYXhpbWl6ZWQ9IjEiIGlua3NjYXBlOndpbmRvdy13aWR0aD0iMTkyMCIgaW5rc2NhcGU6d2luZG93LXg9Ii04IiBpbmtzY2FwZTp3aW5kb3cteT0iLTgiIGlua3NjYXBlOnpvb209IjYuMzkxNjgyOCIgb2JqZWN0dG9sZXJhbmNlPSIxMCIgcGFnZWNvbG9yPSIjZmZmZmZmIiBzaG93Z3JpZD0iZmFsc2UiPiYjeGE7CTwvc29kaXBvZGk6bmFtZWR2aWV3PiYjeGE7PGcgaWQ9Imc1ODUzNSIgdHJhbnNmb3JtPSJ0cmFuc2xhdGUoLTkuNTYzNDE2MSwtOS41Njc2MDUyKSI+JiN4YTsJPHRpdGxlIGlkPSJ0aXRsZTU4NTEwIj5QYWdlLTE8L3RpdGxlPiYjeGE7CTxnIGlkPSJncm91cDQ0MzYtMSIgdHJhbnNmb3JtPSJ0cmFuc2xhdGUoOS4zOTU0MywtOS41NjI1KSI+JiN4YTsJCTx0aXRsZSBpZD0idGl0bGU1ODUxMiI+QXp1cmUgRnVuY3Rpb25zLjQzNzwvdGl0bGU+JiN4YTsJCTxnIGlkPSJzaGFwZTQ0MzctMiIgdHJhbnNmb3JtPSJ0cmFuc2xhdGUoMzkuMjA1OSwtMTAuMjkzOCkiPiYjeGE7CQkJPHRpdGxlIGlkPSJ0aXRsZTU4NTE0Ij5TaGVldC40NDM3PC90aXRsZT4mI3hhOwkJCTxwYXRoIGlkPSJwYXRoNTg1MTYiIGlua3NjYXBlOmNvbm5lY3Rvci1jdXJ2YXR1cmU9IjAiIHN0eWxlPSJmaWxsOiMzOTk5QzY7IiBkPSJNMTcuOSw1Ni4xOGMwLjU0LTAuNTMsMC40NS0xLjUyLDAtMi4wNiAgICAgbC0yLjc3LTIuNzdsLTEyLjM2LTEyYy0wLjUzLTAuNTMtMS4zNC0wLjUzLTEuOTYsMGMtMC41NCwwLjU0LTAuNzIsMS41MywwLDIuMDZsMTIuOTcsMTIuNzFjMC41NCwwLjU0LDAuNTQsMS41MywwLDIuMDYgICAgIEwwLjU0LDY5LjM0QzAsNjkuODgsMCw3MC44NiwwLjU0LDcxLjRjMC41MywwLjU0LDEuNTIsMC40NSwxLjk3LDBsMTIuMjYtMTIuMTdjMCwwLDAsMCwwLjA5LTAuMDlMMTcuOSw1Ni4xOHoiLz4mI3hhOwkJPC9nPiYjeGE7CQk8ZyBpZD0ic2hhcGU0NDM4LTQiIHRyYW5zZm9ybT0idHJhbnNsYXRlKDAsLTEwLjI5MzgpIj4mI3hhOwkJCTx0aXRsZSBpZD0idGl0bGU1ODUxOSI+U2hlZXQuNDQzODwvdGl0bGU+JiN4YTsJCQk8cGF0aCBpZD0icGF0aDU4NTIxIiBpbmtzY2FwZTpjb25uZWN0b3ItY3VydmF0dXJlPSIwIiBzdHlsZT0iZmlsbDojMzk5OUM2OyIgZD0iTTAuNTQsNTYuMThjLTAuNTQtMC41My0wLjQ1LTEuNTIsMC0yLjA2ICAgICBsMi43Ny0yLjc3bDEyLjM1LTEyYzAuNTQtMC41MywxLjM1LTAuNTMsMS45NywwYzAuNTQsMC41NCwwLjcyLDEuNTMsMCwyLjA2TDQuOTIsNTQuMTJjLTAuNTMsMC41NC0wLjUzLDEuNTMsMCwyLjA2TDE3LjksNjkuMzQgICAgIGMwLjU0LDAuNTQsMC41NCwxLjUyLDAsMi4wNmMtMC41MywwLjU0LTEuNTIsMC40NS0xLjk3LDBMMy40LDU5LjQxYzAsMCwwLDAtMC4wOS0wLjA5TDAuNTQsNTYuMTh6Ii8+JiN4YTsJCTwvZz4mI3hhOwkJPGcgaWQ9InNoYXBlNDQzOS02IiB0cmFuc2Zvcm09InRyYW5zbGF0ZSgxNS45MzMpIj4mI3hhOwkJCTx0aXRsZSBpZD0idGl0bGU1ODUyNCI+U2hlZXQuNDQzOTwvdGl0bGU+JiN4YTsJCQk8cGF0aCBpZD0icGF0aDU4NTI2IiBpbmtzY2FwZTpjb25uZWN0b3ItY3VydmF0dXJlPSIwIiBzdHlsZT0iZmlsbDojRkNEMTE2OyIgZD0iTTI2Ljg1LDE5LjEzSDkuNEwwLDQ1LjYybDExLjQ2LDAuMDlMMi41MSw3MS45NCAgICAgbDI0LjctMzVIMTUuMjJMMjYuODUsMTkuMTN6Ii8+JiN4YTsJCTwvZz4mI3hhOwkJPGcgaWQ9InNoYXBlNDQ0MC04IiB0cmFuc2Zvcm09InRyYW5zbGF0ZSgxOC40MzkzKSI+JiN4YTsJCQk8dGl0bGUgaWQ9InRpdGxlNTg1MjkiPlNoZWV0LjQ0NDA8L3RpdGxlPiYjeGE7CQkJPHBhdGggaWQ9InBhdGg1ODUzMSIgaW5rc2NhcGU6Y29ubmVjdG9yLWN1cnZhdHVyZT0iMCIgc3R5bGU9ImZpbGw6I0ZGOEMwMDtmaWxsLW9wYWNpdHk6MC4zOyIgZD0iTTEyLjcxLDM2Ljk0bDExLjY0LTE3LjgxICAgICBoLTkuMTNMNS41NSw0MS4xNGwxMS40NiwwLjA5TDAsNzEuOTRsMjQuNzEtMzVMMTIuNzEsMzYuOTR6Ii8+JiN4YTsJCTwvZz4mI3hhOwk8L2c+JiN4YTs8L2c+JiN4YTs8L3N2Zz4=;" vertex="1" parent="1">
          <mxGeometry x="500" y="504.5" width="57" height="53" as="geometry" />
        </mxCell>
        <mxCell id="T_ul8nOzae2GSwhMlLBv-20" style="edgeStyle=orthogonalEdgeStyle;rounded=0;orthogonalLoop=1;jettySize=auto;html=1;" edge="1" parent="1" source="T_ul8nOzae2GSwhMlLBv-5" target="T_ul8nOzae2GSwhMlLBv-7">
          <mxGeometry relative="1" as="geometry" />
        </mxCell>
        <mxCell id="T_ul8nOzae2GSwhMlLBv-21" value="Users consume" style="edgeLabel;html=1;align=center;verticalAlign=middle;resizable=0;points=[];" vertex="1" connectable="0" parent="T_ul8nOzae2GSwhMlLBv-20">
          <mxGeometry x="-0.6292" y="3" relative="1" as="geometry">
            <mxPoint as="offset" />
          </mxGeometry>
        </mxCell>
        <mxCell id="T_ul8nOzae2GSwhMlLBv-5" value="" style="sketch=0;html=1;aspect=fixed;strokeColor=none;shadow=0;align=center;verticalAlign=top;fillColor=#3B8DF1;shape=mxgraph.gcp2.phone_android" vertex="1" parent="1">
          <mxGeometry x="379" y="80" width="56" height="100" as="geometry" />
        </mxCell>
        <mxCell id="T_ul8nOzae2GSwhMlLBv-6" value="Cosmos DB" style="aspect=fixed;html=1;points=[];align=center;image;fontSize=12;image=img/lib/azure2/databases/Azure_Cosmos_DB.svg;" vertex="1" parent="1">
          <mxGeometry x="496.5" y="660" width="64" height="64" as="geometry" />
        </mxCell>
        <mxCell id="T_ul8nOzae2GSwhMlLBv-12" style="edgeStyle=orthogonalEdgeStyle;rounded=0;orthogonalLoop=1;jettySize=auto;html=1;entryX=0.5;entryY=0;entryDx=0;entryDy=0;" edge="1" parent="1" source="T_ul8nOzae2GSwhMlLBv-7" target="T_ul8nOzae2GSwhMlLBv-3">
          <mxGeometry relative="1" as="geometry" />
        </mxCell>
        <mxCell id="T_ul8nOzae2GSwhMlLBv-17" value="Functions api backend" style="edgeLabel;html=1;align=center;verticalAlign=middle;resizable=0;points=[];" vertex="1" connectable="0" parent="T_ul8nOzae2GSwhMlLBv-12">
          <mxGeometry x="0.4386" y="1" relative="1" as="geometry">
            <mxPoint as="offset" />
          </mxGeometry>
        </mxCell>
        <mxCell id="T_ul8nOzae2GSwhMlLBv-13" style="edgeStyle=orthogonalEdgeStyle;rounded=0;orthogonalLoop=1;jettySize=auto;html=1;entryX=0.5;entryY=0;entryDx=0;entryDy=0;" edge="1" parent="1" source="T_ul8nOzae2GSwhMlLBv-7" target="T_ul8nOzae2GSwhMlLBv-4">
          <mxGeometry relative="1" as="geometry" />
        </mxCell>
        <mxCell id="T_ul8nOzae2GSwhMlLBv-18" value="Functions api backend" style="edgeLabel;html=1;align=center;verticalAlign=middle;resizable=0;points=[];" vertex="1" connectable="0" parent="T_ul8nOzae2GSwhMlLBv-13">
          <mxGeometry x="0.4717" y="-3" relative="1" as="geometry">
            <mxPoint as="offset" />
          </mxGeometry>
        </mxCell>
        <mxCell id="T_ul8nOzae2GSwhMlLBv-14" style="edgeStyle=orthogonalEdgeStyle;rounded=0;orthogonalLoop=1;jettySize=auto;html=1;" edge="1" parent="1" source="T_ul8nOzae2GSwhMlLBv-7" target="T_ul8nOzae2GSwhMlLBv-8">
          <mxGeometry relative="1" as="geometry" />
        </mxCell>
        <mxCell id="T_ul8nOzae2GSwhMlLBv-19" value="CI/CD pipeline" style="edgeLabel;html=1;align=center;verticalAlign=middle;resizable=0;points=[];" vertex="1" connectable="0" parent="T_ul8nOzae2GSwhMlLBv-14">
          <mxGeometry x="0.1471" y="2" relative="1" as="geometry">
            <mxPoint x="1" as="offset" />
          </mxGeometry>
        </mxCell>
        <mxCell id="T_ul8nOzae2GSwhMlLBv-15" value="Static Web App Auth" style="edgeStyle=orthogonalEdgeStyle;rounded=0;orthogonalLoop=1;jettySize=auto;html=1;" edge="1" parent="1" source="T_ul8nOzae2GSwhMlLBv-7" target="T_ul8nOzae2GSwhMlLBv-9">
          <mxGeometry relative="1" as="geometry" />
        </mxCell>
        <mxCell id="T_ul8nOzae2GSwhMlLBv-7" value="Static Web Apps" style="aspect=fixed;html=1;points=[];align=center;image;fontSize=12;image=img/lib/azure2/app_services/App_Services.svg;" vertex="1" parent="1">
          <mxGeometry x="360" y="320" width="94" height="94" as="geometry" />
        </mxCell>
        <mxCell id="T_ul8nOzae2GSwhMlLBv-8" value="GitHub Actions" style="dashed=0;outlineConnect=0;html=1;align=center;labelPosition=center;verticalLabelPosition=bottom;verticalAlign=top;shape=mxgraph.weblogos.github" vertex="1" parent="1">
          <mxGeometry x="620" y="340" width="55" height="55" as="geometry" />
        </mxCell>
        <mxCell id="T_ul8nOzae2GSwhMlLBv-9" value="Auth" style="dashed=0;outlineConnect=0;html=1;align=center;labelPosition=center;verticalLabelPosition=bottom;verticalAlign=top;shape=mxgraph.weblogos.github" vertex="1" parent="1">
          <mxGeometry x="140" y="340" width="54" height="54" as="geometry" />
        </mxCell>
      </root>
    </mxGraphModel>
  </diagram>
</mxfile>
